<svg width="40" height="40" viewBox="0 0 40 40" fill="none" xmlns="http://www.w3.org/2000/svg">
<path d="M34.6344 26.2471L30.4186 30.4616L30.4464 15.7142C30.4464 14.9246 29.8074 14.2856 29.0179 14.2856C28.231 14.2856 27.5893 14.9246 27.5893 15.7142L27.5614 30.3612L23.4487 26.2471C22.8906 25.6905 21.9866 25.6905 21.4286 26.2471C20.8706 26.8052 20.8706 27.7106 21.4286 28.2686L27.3074 34.1475C27.6981 34.6651 28.3203 34.9999 29.0179 34.9999C29.562 34.9999 30.0559 34.7991 30.4324 34.4671C30.4883 34.4252 30.5413 34.3791 30.5916 34.3289L36.6546 28.2686C37.2126 27.7106 37.2126 26.8052 36.6546 26.2471C36.0966 25.6905 35.1926 25.6905 34.6344 26.2471Z" fill="#3478F6"/>
<path d="M2.85712 29.5717C2.85712 30.2023 3.36772 30.7143 4.00109 30.7143H15.2845C15.558 30.7143 15.8091 30.6195 16.0044 30.4605C16.264 30.2512 16.4285 29.9303 16.4285 29.5717V28.9998C16.4285 28.3692 15.918 27.8572 15.2845 27.8572H4.00109C3.66906 27.8572 3.37052 27.9967 3.16125 28.2213C3.04406 28.3455 2.95756 28.4962 2.90735 28.6636C2.87386 28.7696 2.85712 28.8826 2.85712 28.9998V29.5717Z" fill="#3478F6"/>
<path d="M3.57977 19.2048C3.47096 19.1615 3.37052 19.1029 3.28123 19.0303C3.02173 18.821 2.85712 18.5016 2.85712 18.143V17.571C2.85712 16.9405 3.36772 16.4285 4.00109 16.4285H21.7131C22.3465 16.4285 22.8571 16.9405 22.8571 17.571V18.143C22.8571 18.7736 22.3465 19.2856 21.7131 19.2856H4.00109C3.85322 19.2856 3.71092 19.2563 3.57977 19.2048Z" fill="#3478F6"/>
<path d="M2.96315 7.19309C2.89617 7.04799 2.85712 6.88616 2.85712 6.71457V6.14257C2.85712 5.77846 3.02732 5.4534 3.29239 5.24414C3.4877 5.09069 3.73323 5 4.00109 5H34.5703C35.2037 5 35.7143 5.512 35.7143 6.14257V6.71457C35.7143 7.34514 35.2037 7.85714 34.5703 7.85714H4.00109C3.54072 7.85714 3.1445 7.5851 2.96315 7.19309Z" fill="#3478F6"/>
</svg>
